<?xml version="1.0" ?><!DOCTYPE svg  PUBLIC '-//W3C//DTD SVG 1.1//EN'  'http://www.w3.org/Graphics/SVG/1.1/DTD/svg11.dtd'><svg id="Layer_1" style="enable-background:new 0 0 74 74;" version="1.1" viewBox="0 0 74 74" xml:space="preserve" xmlns="http://www.w3.org/2000/svg" xmlns:xlink="http://www.w3.org/1999/xlink"><style type="text/css">
	.st0{fill:#7688A1;}
	.st1{fill:#FABB8E;}
	.st2{fill:#E69D6A;}
	.st3{fill:#594667;}
	.st4{fill:#E73A36;}
	.st5{fill:#CFE5E4;}
	.st6{fill:#FFFFFF;}
	.st7{fill:#EEF1F6;}
	.st8{fill:#8EDAFA;}
	.st9{fill:#FFF383;}
	.st10{fill:#70B7D6;}
	.st11{fill:#FFAEC3;}
	.st12{fill:#FF9DB2;}
	.st13{fill:#F18DA2;}
	.st14{fill:#FFDF97;}
	.st15{fill:#49375B;}
	.st16{fill:#452E1B;}
	.st17{fill:#FEF6B0;}
	.st18{fill:#FFCCA9;}
	.st19{fill:#FED766;}
	.st20{fill:#8A9DB2;}
	.st21{fill:#5D738C;}
	.st22{fill:#2C3E50;}
	.st23{fill:#EC685E;}
	.st24{fill:#54758C;}
	.st25{fill:#D12828;}
	.st26{fill:#69567C;}
	.st27{fill:#857399;}
	.st28{fill:#705D82;}
	.st29{fill:#EAA678;}
	.st30{fill:#D88D5B;}
	.st31{fill:#3597D3;}
	.st32{fill:#E27491;}
	.st33{fill:#E4F2F1;}
	.st34{fill:#FFE576;}
	.st35{fill:#FFB8CB;}
	.st36{fill:#C91F1F;}
	.st37{fill:#E0E2EE;}
	.st38{fill:#FEFEFE;}
	.st39{fill:#E5E5E5;}
	.st40{fill:#D3D3D3;}
	.st41{fill:#C2C3C4;}
	.st42{fill:none;}
	.st43{fill:#FFFBD7;}
	.st44{fill:#CCCCCC;}
	.st45{fill:#FFF5B0;}
	.st46{fill:#EDEFF4;}
	.st47{fill:#F0F2F7;}
	.st48{fill:#D3EBF7;}
</style><g><path class="st6" d="M64.6,69.6V4.4c0-1.9-1.5-3.4-3.4-3.4H12.9c-1.9,0-3.4,1.5-3.4,3.4v65.1c0,1.9,1.5,3.4,3.4,3.4h48.3   C63.1,73,64.6,71.5,64.6,69.6z"/><rect class="st4" height="10.8" width="10.8" x="15.1" y="7.4"/><rect class="st8" height="10.8" width="10.8" x="15.1" y="23.5"/><rect class="st3" height="10.8" width="10.8" x="15.1" y="39.7"/><rect class="st19" height="10.8" width="10.8" x="15.1" y="55.8"/><path class="st0" d="M58.9,13.5H31.4c-0.4,0-0.7-0.3-0.7-0.7s0.3-0.7,0.7-0.7h27.5c0.4,0,0.7,0.3,0.7,0.7S59.2,13.5,58.9,13.5z"/><path class="st0" d="M58.9,29.6H31.4c-0.4,0-0.7-0.3-0.7-0.7s0.3-0.7,0.7-0.7h27.5c0.4,0,0.7,0.3,0.7,0.7S59.2,29.6,58.9,29.6z"/><path class="st0" d="M58.9,45.8H31.4c-0.4,0-0.7-0.3-0.7-0.7s0.3-0.7,0.7-0.7h27.5c0.4,0,0.7,0.3,0.7,0.7S59.2,45.8,58.9,45.8z"/><path class="st0" d="M58.9,61.9H31.4c-0.4,0-0.7-0.3-0.7-0.7s0.3-0.7,0.7-0.7h27.5c0.4,0,0.7,0.3,0.7,0.7S59.2,61.9,58.9,61.9z"/><path class="st0" d="M58.9,13.5H31.4c-0.4,0-0.7-0.3-0.7-0.7s0.3-0.7,0.7-0.7h27.5c0.4,0,0.7,0.3,0.7,0.7S59.2,13.5,58.9,13.5z"/><path class="st0" d="M58.9,29.6H31.4c-0.4,0-0.7-0.3-0.7-0.7s0.3-0.7,0.7-0.7h27.5c0.4,0,0.7,0.3,0.7,0.7S59.2,29.6,58.9,29.6z"/><path class="st0" d="M58.9,45.8H31.4c-0.4,0-0.7-0.3-0.7-0.7s0.3-0.7,0.7-0.7h27.5c0.4,0,0.7,0.3,0.7,0.7S59.2,45.8,58.9,45.8z"/><path class="st0" d="M58.9,61.9H31.4c-0.4,0-0.7-0.3-0.7-0.7s0.3-0.7,0.7-0.7h27.5c0.4,0,0.7,0.3,0.7,0.7S59.2,61.9,58.9,61.9z"/></g></svg>